<svg xmlns="http://www.w3.org/2000/svg" xmlns:xlink="http://www.w3.org/1999/xlink" width="500" zoomAndPan="magnify" viewBox="0 0 375 374.999991" height="500" preserveAspectRatio="xMidYMid meet" version="1.0"><defs><g/></defs><rect x="-37.5" width="450" fill="#ffffff" y="-37.499999" height="449.999989" fill-opacity="1"/><rect x="-37.5" width="450" fill="#ffffff" y="-37.499999" height="449.999989" fill-opacity="1"/><g fill="#000000" fill-opacity="1"><g transform="translate(77.021194, 229.469164)"><g><path d="M 7.453125 -36.03125 C 5.796875 -37.382812 4.40625 -38.890625 3.28125 -40.546875 C 2.15625 -42.203125 1.59375 -44.15625 1.59375 -46.40625 C 1.59375 -47.59375 1.800781 -48.984375 2.21875 -50.578125 C 2.632812 -52.171875 3.414062 -53.738281 4.5625 -55.28125 C 5.71875 -56.820312 7.332031 -58.109375 9.40625 -59.140625 C 11.476562 -60.171875 14.171875 -60.6875 17.484375 -60.6875 C 20.796875 -60.6875 23.828125 -60.210938 26.578125 -59.265625 C 29.328125 -58.328125 31.851562 -57.234375 34.15625 -55.984375 C 36.46875 -54.742188 38.554688 -53.648438 40.421875 -52.703125 C 42.285156 -51.753906 43.984375 -51.28125 45.515625 -51.28125 C 47.585938 -51.28125 49.289062 -51.722656 50.625 -52.609375 C 51.957031 -53.503906 52.945312 -54.613281 53.59375 -55.9375 C 54.25 -57.269531 54.578125 -58.648438 54.578125 -60.078125 L 56.796875 -60.078125 C 56.796875 -55.992188 56.113281 -52.53125 54.75 -49.6875 C 53.382812 -46.851562 51.625 -44.546875 49.46875 -42.765625 C 47.3125 -40.992188 45.003906 -39.707031 42.546875 -38.90625 C 40.085938 -38.113281 37.765625 -37.71875 35.578125 -37.71875 C 33.097656 -37.71875 30.789062 -37.96875 28.65625 -38.46875 C 26.53125 -38.96875 24.550781 -39.570312 22.71875 -40.28125 C 23.488281 -38.21875 24.523438 -36.710938 25.828125 -35.765625 C 27.128906 -34.816406 28.53125 -34.164062 30.03125 -33.8125 C 31.539062 -33.457031 32.972656 -33.113281 34.328125 -32.78125 C 35.691406 -32.457031 36.800781 -31.878906 37.65625 -31.046875 C 38.519531 -30.222656 38.953125 -28.835938 38.953125 -26.890625 L 38.953125 0 L 19.515625 0 L 19.515625 -41.609375 C 17.804688 -42.378906 16.269531 -43.0625 14.90625 -43.65625 C 13.539062 -44.25 12.359375 -44.546875 11.359375 -44.546875 C 9.941406 -44.546875 8.9375 -44.070312 8.34375 -43.125 C 7.75 -42.175781 7.523438 -41.15625 7.671875 -40.0625 C 7.816406 -38.96875 8.273438 -38.125 9.046875 -37.53125 Z M 7.453125 -36.03125 "/></g></g></g><g fill="#000000" fill-opacity="1"><g transform="translate(135.400696, 229.469164)"><g><path d="M 32.296875 -48.625 C 37.390625 -48.625 41.632812 -47.570312 45.03125 -45.46875 C 48.4375 -43.375 50.863281 -40.519531 52.3125 -36.90625 C 53.757812 -33.300781 54.097656 -29.191406 53.328125 -24.578125 C 52.734375 -21.023438 52.46875 -18.003906 52.53125 -15.515625 C 52.59375 -13.035156 53.476562 -11.03125 55.1875 -9.5 C 56.375 -8.488281 57.660156 -8.113281 59.046875 -8.375 C 60.441406 -8.644531 61.847656 -9.492188 63.265625 -10.921875 L 64.59375 -9.5 C 63.351562 -7.84375 61.753906 -6.300781 59.796875 -4.875 C 57.847656 -3.457031 55.734375 -2.273438 53.453125 -1.328125 C 51.179688 -0.378906 48.875 0.164062 46.53125 0.3125 C 44.195312 0.457031 42.007812 0.0859375 39.96875 -0.796875 C 37.925781 -1.679688 36.226562 -3.21875 34.875 -5.40625 C 34.632812 -3.75 33.789062 -2.375 32.34375 -1.28125 C 30.894531 -0.1875 28.304688 0.359375 24.578125 0.359375 C 16.710938 0.359375 10.914062 -0.851562 7.1875 -3.28125 C 3.457031 -5.707031 1.59375 -9.195312 1.59375 -13.75 C 1.59375 -23.15625 9.816406 -27.859375 26.265625 -27.859375 C 27.628906 -27.859375 28.945312 -27.828125 30.21875 -27.765625 C 31.488281 -27.710938 32.6875 -27.625 33.8125 -27.5 C 34.519531 -32.882812 34.707031 -36.984375 34.375 -39.796875 C 34.050781 -42.609375 33.3125 -44.457031 32.15625 -45.34375 C 31.007812 -46.226562 29.488281 -46.40625 27.59375 -45.875 C 26.414062 -45.519531 25.554688 -44.71875 25.015625 -43.46875 C 24.484375 -42.226562 24.039062 -40.78125 23.6875 -39.125 C 23.332031 -37.46875 22.859375 -35.84375 22.265625 -34.25 C 21.679688 -32.65625 20.78125 -31.320312 19.5625 -30.25 C 18.351562 -29.1875 16.59375 -28.65625 14.28125 -28.65625 C 11.738281 -28.65625 9.664062 -29.242188 8.0625 -30.421875 C 6.46875 -31.609375 5.375 -33.609375 4.78125 -36.421875 C 4.195312 -39.234375 4.171875 -43.09375 4.703125 -48 L 7.015625 -48 C 7.015625 -46.34375 7.296875 -44.96875 7.859375 -43.875 C 8.421875 -42.78125 9.441406 -42.234375 10.921875 -42.234375 C 12.335938 -42.234375 13.769531 -42.554688 15.21875 -43.203125 C 16.664062 -43.859375 18.21875 -44.597656 19.875 -45.421875 C 21.53125 -46.253906 23.378906 -46.992188 25.421875 -47.640625 C 27.460938 -48.296875 29.753906 -48.625 32.296875 -48.625 Z M 32.5625 -15.53125 C 32.625 -17.0625 32.742188 -18.625 32.921875 -20.21875 C 33.097656 -21.820312 33.304688 -23.453125 33.546875 -25.109375 L 33.546875 -25.46875 C 31.234375 -25.757812 29.054688 -25.875 27.015625 -25.8125 C 24.972656 -25.757812 23.332031 -25.40625 22.09375 -24.75 C 20.375 -23.925781 19.394531 -22.359375 19.15625 -20.046875 C 18.925781 -17.742188 19.429688 -15.054688 20.671875 -11.984375 C 22.273438 -7.953125 23.992188 -5.242188 25.828125 -3.859375 C 27.660156 -2.472656 29.429688 -2.191406 31.140625 -3.015625 C 31.847656 -3.367188 32.289062 -4.195312 32.46875 -5.5 C 32.65625 -6.800781 32.71875 -8.351562 32.65625 -10.15625 C 32.59375 -11.957031 32.5625 -13.75 32.5625 -15.53125 Z M 32.5625 -15.53125 "/></g></g></g><g fill="#000000" fill-opacity="1"><g transform="translate(190.6749, 229.469164)"><g><path d="M 2.046875 0 L 2.046875 -41.703125 C 2.753906 -40.753906 3.859375 -39.925781 5.359375 -39.21875 C 6.867188 -38.507812 8.898438 -37.945312 11.453125 -37.53125 C 13.046875 -37.300781 14.609375 -37.050781 16.140625 -36.78125 C 17.679688 -36.507812 18.953125 -35.929688 19.953125 -35.046875 C 20.960938 -34.160156 21.46875 -32.65625 21.46875 -30.53125 L 21.46875 0 Z M 23.15625 -50.21875 C 23.15625 -47.144531 22.117188 -44.617188 20.046875 -42.640625 C 17.984375 -40.660156 15.234375 -39.671875 11.796875 -39.671875 C 8.367188 -39.671875 5.617188 -40.660156 3.546875 -42.640625 C 1.472656 -44.617188 0.4375 -47.144531 0.4375 -50.21875 C 0.4375 -53.351562 1.472656 -55.910156 3.546875 -57.890625 C 5.617188 -59.878906 8.367188 -60.875 11.796875 -60.875 C 15.234375 -60.875 17.984375 -59.878906 20.046875 -57.890625 C 22.117188 -55.910156 23.15625 -53.351562 23.15625 -50.21875 Z M 23.15625 -50.21875 "/></g></g></g><g fill="#000000" fill-opacity="1"><g transform="translate(214.186396, 229.469164)"><g><path d="M 1.78125 -60.15625 L 4 -60.15625 C 4 -58.09375 4.410156 -56.570312 5.234375 -55.59375 C 6.066406 -54.613281 7.128906 -53.929688 8.421875 -53.546875 C 9.722656 -53.160156 11.113281 -52.878906 12.59375 -52.703125 C 14.070312 -52.523438 15.460938 -52.273438 16.765625 -51.953125 C 18.066406 -51.628906 19.128906 -51.019531 19.953125 -50.125 C 20.785156 -49.238281 21.203125 -47.820312 21.203125 -45.875 L 21.203125 0 L 1.78125 0 Z M 1.78125 -60.15625 "/></g></g></g><g fill="#000000" fill-opacity="1"><g transform="translate(237.165558, 229.469164)"><g><path d="M 28.125 -48.625 C 33.394531 -48.625 38.007812 -47.570312 41.96875 -45.46875 C 45.9375 -43.375 49.03125 -40.492188 51.25 -36.828125 C 53.46875 -33.160156 54.578125 -28.898438 54.578125 -24.046875 C 54.578125 -19.191406 53.46875 -14.914062 51.25 -11.21875 C 49.03125 -7.519531 45.9375 -4.617188 41.96875 -2.515625 C 38.007812 -0.421875 33.394531 0.625 28.125 0.625 C 22.800781 0.625 18.15625 -0.421875 14.1875 -2.515625 C 10.226562 -4.617188 7.140625 -7.519531 4.921875 -11.21875 C 2.703125 -14.914062 1.59375 -19.191406 1.59375 -24.046875 C 1.59375 -28.898438 2.703125 -33.160156 4.921875 -36.828125 C 7.140625 -40.492188 10.226562 -43.375 14.1875 -45.46875 C 18.15625 -47.570312 22.800781 -48.625 28.125 -48.625 Z M 40.734375 -4.078125 C 42.441406 -5.140625 43.238281 -6.820312 43.125 -9.125 C 43.007812 -11.4375 42.195312 -14.21875 40.6875 -17.46875 C 39.175781 -20.726562 37.175781 -24.3125 34.6875 -28.21875 C 32.207031 -32.175781 29.8125 -35.53125 27.5 -38.28125 C 25.195312 -41.039062 23.039062 -42.953125 21.03125 -44.015625 C 19.019531 -45.078125 17.15625 -45.078125 15.4375 -44.015625 C 13.78125 -42.953125 12.992188 -41.265625 13.078125 -38.953125 C 13.171875 -36.648438 13.972656 -33.867188 15.484375 -30.609375 C 16.992188 -27.359375 18.988281 -23.75 21.46875 -19.78125 C 24.019531 -15.882812 26.429688 -12.554688 28.703125 -9.796875 C 30.984375 -7.046875 33.144531 -5.140625 35.1875 -4.078125 C 37.226562 -3.015625 39.078125 -3.015625 40.734375 -4.078125 Z M 40.734375 -4.078125 "/></g></g></g><g fill="#000000" fill-opacity="1"><g transform="translate(293.326988, 229.469164)"><g><path d="M 2.046875 -48 L 4.265625 -48 C 4.265625 -45.757812 4.660156 -44.117188 5.453125 -43.078125 C 6.253906 -42.046875 7.304688 -41.441406 8.609375 -41.265625 C 9.910156 -41.085938 11.390625 -41.144531 13.046875 -41.4375 C 14.523438 -41.726562 15.828125 -42.242188 16.953125 -42.984375 C 18.078125 -43.722656 19.1875 -44.535156 20.28125 -45.421875 C 21.375 -46.316406 22.582031 -47.070312 23.90625 -47.6875 C 25.238281 -48.3125 26.820312 -48.625 28.65625 -48.625 C 31.257812 -48.625 33.285156 -48.296875 34.734375 -47.640625 C 36.179688 -46.992188 37.304688 -46.253906 38.109375 -45.421875 C 38.910156 -44.597656 39.664062 -43.859375 40.375 -43.203125 C 41.082031 -42.554688 41.96875 -42.234375 43.03125 -42.234375 C 44.507812 -42.234375 45.53125 -42.78125 46.09375 -43.875 C 46.65625 -44.96875 46.9375 -46.34375 46.9375 -48 L 49.25 -48 C 49.539062 -43.09375 49.300781 -39.234375 48.53125 -36.421875 C 47.769531 -33.609375 46.53125 -31.609375 44.8125 -30.421875 C 43.09375 -29.242188 40.960938 -28.65625 38.421875 -28.65625 C 36.117188 -28.65625 34.316406 -29.15625 33.015625 -30.15625 C 31.710938 -31.164062 30.71875 -32.410156 30.03125 -33.890625 C 29.351562 -35.367188 28.804688 -36.863281 28.390625 -38.375 C 27.984375 -39.882812 27.5 -41.1875 26.9375 -42.28125 C 26.375 -43.375 25.53125 -44.007812 24.40625 -44.1875 C 23.28125 -44.363281 22.476562 -43.945312 22 -42.9375 C 21.53125 -41.9375 21.296875 -40.640625 21.296875 -39.046875 L 21.46875 0 L 2.046875 0 Z M 2.046875 -48 "/></g></g></g><g fill="#000000" fill-opacity="1"><g transform="translate(56.628395, 199.270597)"><g><path d="M 0.09375 -7.859375 C 0.132812 -6.472656 -0.015625 -5.128906 -0.359375 -3.828125 C -0.703125 -2.523438 -1.164062 -1.46875 -1.75 -0.65625 L -4.84375 -1.953125 C -4.3125 -2.734375 -3.890625 -3.644531 -3.578125 -4.6875 C -3.273438 -5.726562 -3.140625 -6.769531 -3.171875 -7.8125 C -3.203125 -8.957031 -3.394531 -9.800781 -3.75 -10.34375 C -4.101562 -10.894531 -4.5625 -11.164062 -5.125 -11.15625 C -5.539062 -11.144531 -5.882812 -10.972656 -6.15625 -10.640625 C -6.425781 -10.304688 -6.632812 -9.878906 -6.78125 -9.359375 C -6.9375 -8.847656 -7.109375 -8.148438 -7.296875 -7.265625 C -7.578125 -5.929688 -7.863281 -4.832031 -8.15625 -3.96875 C -8.457031 -3.101562 -8.953125 -2.351562 -9.640625 -1.71875 C -10.328125 -1.09375 -11.257812 -0.765625 -12.4375 -0.734375 C -13.457031 -0.703125 -14.382812 -0.953125 -15.21875 -1.484375 C -16.0625 -2.023438 -16.738281 -2.84375 -17.25 -3.9375 C -17.769531 -5.039062 -18.050781 -6.398438 -18.09375 -8.015625 C -18.125 -9.128906 -18.019531 -10.222656 -17.78125 -11.296875 C -17.539062 -12.378906 -17.179688 -13.328125 -16.703125 -14.140625 L -13.578125 -12.96875 C -14.453125 -11.320312 -14.867188 -9.6875 -14.828125 -8.0625 C -14.796875 -6.925781 -14.585938 -6.085938 -14.203125 -5.546875 C -13.828125 -5.015625 -13.335938 -4.753906 -12.734375 -4.765625 C -12.128906 -4.785156 -11.6875 -5.113281 -11.40625 -5.75 C -11.132812 -6.382812 -10.875 -7.347656 -10.625 -8.640625 C -10.34375 -9.992188 -10.050781 -11.097656 -9.75 -11.953125 C -9.457031 -12.816406 -8.972656 -13.5625 -8.296875 -14.1875 C -7.628906 -14.820312 -6.707031 -15.15625 -5.53125 -15.1875 C -4.53125 -15.207031 -3.609375 -14.945312 -2.765625 -14.40625 C -1.921875 -13.875 -1.242188 -13.050781 -0.734375 -11.9375 C -0.222656 -10.820312 0.0507812 -9.460938 0.09375 -7.859375 Z M 0.09375 -7.859375 "/></g></g></g><g fill="#000000" fill-opacity="1"><g transform="translate(57.755302, 177.57902)"><g><path d="M 3.28125 -10.015625 C 3.414062 -9.546875 3.441406 -9.023438 3.359375 -8.453125 C 3.285156 -7.878906 3.132812 -7.304688 2.90625 -6.734375 C 2.3125 -5.242188 1.46875 -4.242188 0.375 -3.734375 C -0.71875 -3.222656 -2 -3.257812 -3.46875 -3.84375 L -8.625 -5.90625 L -9.390625 -3.96875 L -12.1875 -5.078125 L -11.421875 -7.015625 L -14.484375 -8.234375 L -13.03125 -11.875 L -9.96875 -10.65625 L -8.71875 -13.765625 L -5.921875 -12.65625 L -7.171875 -9.546875 L -2.078125 -7.515625 C -1.535156 -7.296875 -1.066406 -7.265625 -0.671875 -7.421875 C -0.273438 -7.578125 0.0195312 -7.90625 0.21875 -8.40625 C 0.445312 -8.976562 0.488281 -9.53125 0.34375 -10.0625 Z M 3.28125 -10.015625 "/></g></g></g><g fill="#000000" fill-opacity="1"><g transform="translate(64.467363, 162.256025)"><g><path d="M 1.5625 -20.453125 L 11.015625 -10.796875 L 8.359375 -8.1875 L 7.234375 -9.34375 C 7.265625 -8.5625 7.132812 -7.804688 6.84375 -7.078125 C 6.550781 -6.359375 6.101562 -5.703125 5.5 -5.109375 C 4.226562 -3.867188 2.863281 -3.25 1.40625 -3.25 C -0.0390625 -3.257812 -1.46875 -3.984375 -2.875 -5.421875 L -8.21875 -10.875 L -5.40625 -13.609375 L -0.46875 -8.5625 C 1.050781 -7.007812 2.460938 -6.875 3.765625 -8.15625 C 4.429688 -8.8125 4.753906 -9.550781 4.734375 -10.375 C 4.710938 -11.207031 4.28125 -12.054688 3.4375 -12.921875 L -1.234375 -17.703125 Z M 1.5625 -20.453125 "/></g></g></g><g fill="#000000" fill-opacity="1"><g transform="translate(81.439358, 147.394676)"><g><path d="M 9.34375 -22.390625 L 14.859375 -4.609375 L 11.296875 -3.5 L 10.828125 -5 C 10.253906 -3.59375 9.085938 -2.613281 7.328125 -2.0625 C 6.117188 -1.6875 4.9375 -1.613281 3.78125 -1.84375 C 2.632812 -2.082031 1.625 -2.617188 0.75 -3.453125 C -0.125 -4.296875 -0.765625 -5.378906 -1.171875 -6.703125 C -1.585938 -8.035156 -1.671875 -9.289062 -1.421875 -10.46875 C -1.179688 -11.644531 -0.65625 -12.65625 0.15625 -13.5 C 0.976562 -14.351562 1.992188 -14.96875 3.203125 -15.34375 C 4.847656 -15.851562 6.296875 -15.734375 7.546875 -14.984375 L 5.609375 -21.234375 Z M 7.015625 -5.328125 C 7.960938 -5.617188 8.644531 -6.179688 9.0625 -7.015625 C 9.476562 -7.859375 9.519531 -8.828125 9.1875 -9.921875 C 8.84375 -11.015625 8.257812 -11.785156 7.4375 -12.234375 C 6.625 -12.691406 5.742188 -12.773438 4.796875 -12.484375 C 3.847656 -12.191406 3.160156 -11.625 2.734375 -10.78125 C 2.304688 -9.945312 2.265625 -8.984375 2.609375 -7.890625 C 2.941406 -6.796875 3.519531 -6.019531 4.34375 -5.5625 C 5.175781 -5.113281 6.066406 -5.035156 7.015625 -5.328125 Z M 7.015625 -5.328125 "/></g></g></g><g fill="#000000" fill-opacity="1"><g transform="translate(104.082137, 142.546169)"><g><path d="M 2.984375 -13.3125 L 6.875 -12.96875 L 5.703125 0.5 L 1.8125 0.15625 Z M 5.078125 -15 C 4.359375 -15.0625 3.789062 -15.320312 3.375 -15.78125 C 2.96875 -16.238281 2.789062 -16.78125 2.84375 -17.40625 C 2.894531 -18.019531 3.160156 -18.515625 3.640625 -18.890625 C 4.128906 -19.265625 4.734375 -19.421875 5.453125 -19.359375 C 6.171875 -19.296875 6.738281 -19.046875 7.15625 -18.609375 C 7.570312 -18.179688 7.753906 -17.664062 7.703125 -17.0625 C 7.648438 -16.40625 7.378906 -15.878906 6.890625 -15.484375 C 6.398438 -15.097656 5.796875 -14.9375 5.078125 -15 Z M 5.078125 -15 "/></g></g></g><g fill="#000000" fill-opacity="1"><g transform="translate(117.651988, 144.032118)"><g><path d="M 7.265625 3.875 C 5.992188 3.238281 4.988281 2.398438 4.25 1.359375 C 3.507812 0.328125 3.085938 -0.800781 2.984375 -2.03125 C 2.890625 -3.269531 3.144531 -4.484375 3.75 -5.671875 C 4.351562 -6.867188 5.175781 -7.796875 6.21875 -8.453125 C 7.257812 -9.109375 8.414062 -9.445312 9.6875 -9.46875 C 10.957031 -9.5 12.226562 -9.195312 13.5 -8.5625 C 14.78125 -7.914062 15.785156 -7.078125 16.515625 -6.046875 C 17.253906 -5.015625 17.671875 -3.882812 17.765625 -2.65625 C 17.867188 -1.425781 17.617188 -0.210938 17.015625 0.984375 C 16.410156 2.171875 15.585938 3.09375 14.546875 3.75 C 13.503906 4.414062 12.347656 4.765625 11.078125 4.796875 C 9.816406 4.828125 8.546875 4.519531 7.265625 3.875 Z M 8.71875 0.984375 C 9.625 1.441406 10.515625 1.507812 11.390625 1.1875 C 12.265625 0.875 12.957031 0.210938 13.46875 -0.796875 C 13.976562 -1.816406 14.097656 -2.773438 13.828125 -3.671875 C 13.554688 -4.566406 12.96875 -5.242188 12.0625 -5.703125 C 11.164062 -6.148438 10.273438 -6.210938 9.390625 -5.890625 C 8.503906 -5.578125 7.804688 -4.910156 7.296875 -3.890625 C 6.785156 -2.878906 6.671875 -1.925781 6.953125 -1.03125 C 7.234375 -0.132812 7.820312 0.535156 8.71875 0.984375 Z M 8.71875 0.984375 "/></g></g></g></svg>